<?xml version="1.0" encoding="utf-8"?>
<!-- Generator: Adobe Illustrator 16.0.4, SVG Export Plug-In . SVG Version: 6.00 Build 0)  -->
<!DOCTYPE svg PUBLIC "-//W3C//DTD SVG 1.1//EN" "http://www.w3.org/Graphics/SVG/1.1/DTD/svg11.dtd">
<svg version="1.1" id="Layer_1" xmlns="http://www.w3.org/2000/svg" xmlns:xlink="http://www.w3.org/1999/xlink" x="0px" y="0px"
	 width="512px" height="512px" viewBox="0 0 512 512" enable-background="new 0 0 512 512" xml:space="preserve">
<g>
	<path d="M312.744,5.5C205.467,5.5,118.5,73.55,118.5,157.499c0,6.151,0.467,12.216,1.375,18.176
		c31.302-11.89,65.975-18.175,101.875-18.175c61.142,0,118.73,18.231,162.156,51.334c21.379,16.297,38.197,35.336,49.99,56.589
		c1.5,2.704,2.91,5.429,4.23,8.173c42.116-27.882,68.862-69.548,68.862-116.098C506.989,73.55,420.023,5.5,312.744,5.5"/>
	<path d="M121.834,185.684C50.128,213.478,1,270.255,1,335.777c0,92.941,98.833,168.281,220.75,168.281
		c37.227,0,72.296-7.032,103.062-19.44l-23.559-99.299l80.719,66.21c37.512-30.162,60.527-70.909,60.527-115.752
		c0-19.95-4.552-39.085-12.911-56.842c-32.516,19.188-72.98,30.563-116.845,30.563c-32.759,0-63.613-6.355-90.688-17.561l0,0l0,0
		l20.73-89.691l-71.027,59.804C146.6,241.285,128.851,214.965,121.834,185.684 M221.75,167.5c-35.963,0-69.915,6.554-99.917,18.184
		c7.017,29.282,24.766,55.601,49.925,76.367l71.027-59.804l-20.73,89.691c27.075,11.205,57.929,17.561,90.688,17.561
		c43.864,0,84.329-11.375,116.845-30.563C399.007,213.971,317.496,167.5,221.75,167.5"/>
</g>
</svg>
