<?xml version="1.0" encoding="utf-8"?>
<!-- Generator: Adobe Illustrator 16.0.4, SVG Export Plug-In . SVG Version: 6.00 Build 0)  -->
<!DOCTYPE svg PUBLIC "-//W3C//DTD SVG 1.1//EN" "http://www.w3.org/Graphics/SVG/1.1/DTD/svg11.dtd">
<svg version="1.1" id="Layer_1" xmlns="http://www.w3.org/2000/svg" xmlns:xlink="http://www.w3.org/1999/xlink" x="0px" y="0px"
	 width="550px" height="250px" viewBox="0 0 550 250" enable-background="new 0 0 550 250" xml:space="preserve">
<rect x="-317.32" y="-175.658" display="none" fill="#31363B" width="1300" height="617"/>
<g>
	<path fill="#66ADDF" d="M58.521,180.886H44.646l10.545-49.765c3.515-16.649,6.475-33.484,6.105-49.209h13.32l-0.74,18.13
		c9.435-11.655,24.05-20.165,37.925-20.165c15.725,0,20.72,14.43,17.205,31.265l-14.8,69.744H100.33l13.875-65.674
		c2.035-9.435,5.18-23.68-7.03-23.68c-13.135,0-32.56,13.32-39.959,48.099L58.521,180.886z"/>
	<path fill="#66ADDF" d="M221.133,76.547c2.22-11.1-3.885-19.794-15.169-19.794c-28.12,0-38.11,38.109-42.55,58.644
		c-4.07,19.425-9.99,56.424,16.65,56.424c13.875,0,24.419-10.359,27.379-23.494h13.875c-5.92,21.645-22.015,35.149-44.214,35.149
		c-36.629,0-33.299-40.145-27.379-68.449c6.29-29.229,20.904-69.929,58.459-69.929c18.5,0,29.6,12.95,26.825,31.449H221.133z"/>
	<path fill="#66ADDF" d="M390.775,182.921l-0.74-11.101c-9.805,7.4-14.984,11.101-26.455,11.101
		c-17.389,0-36.814-13.319-28.49-52.169c7.955-37.74,34.781-50.875,50.875-50.875c8.324,0,13.689,2.035,19.609,5.735l9.066-41.994
		h13.873l-21.645,101.933c-2.59,12.211-4.068,24.42-2.59,35.705L390.775,182.921z M402.615,99.672
		c-4.439-4.44-9.805-8.14-16.836-8.14c-14.799,0-31.264,12.395-36.998,39.775c-6.846,32.189,8.324,39.959,17.574,39.959
		c10.73,0,19.055-7.955,24.789-17.02L402.615,99.672z"/>
	<path fill="#66ADDF" d="M491.043,110.217c2.404-10.915-2.59-18.685-12.951-18.685c-8.693,0-17.76,4.07-26.453,7.4l-0.557-12.209
		c10.176-3.7,19.611-6.845,29.971-6.845c18.869,0,27.01,15.54,23.494,32.005l-9.064,42.919c-1.85,9.065-2.59,18.314-1.48,26.825
		l-13.32,1.665l-0.924-12.395c-8.324,7.954-16.65,12.024-27.01,12.024c-18.869,0-26.27-14.8-22.57-32.375
		c4.07-19.055,19.24-35.704,39.221-35.704c7.398,0,13.875,2.22,19.609,4.81L491.043,110.217z M486.602,131.307
		c-5.363-2.59-11.283-4.811-17.943-4.811c-14.061,0-22.199,12.21-24.791,24.79c-2.033,9.25,0.557,19.979,11.285,19.979
		c10.73,0,19.055-9.064,26.641-17.02v-0.37L486.602,131.307z"/>
</g>
<rect x="24.111" y="43.618" fill="none" width="748.569" height="324.959"/>
<text transform="matrix(1 0 0 1 24.1108 180.8857)" display="none" fill="#66ADDF" font-family="'LetterGothicStd-BoldSlanted'" font-size="185" letter-spacing="-15">nCoda</text>
<line display="none" fill="none" stroke="#000000" stroke-width="2" stroke-miterlimit="10" x1="307.263" y1="12.438" x2="257.766" y2="238.927"/>
<g>
	<path fill="#FBC84E" d="M342.866,145.242c-0.393,1.867-1.301,3.326-3.312,2.901l-17.094-3.603
		c-7.1,26.561-31.813,44.157-55.48,41.119l-4.239,20.112c-0.424,2.012-2.125,2.253-3.993,1.859
		c-1.867-0.395-3.327-1.302-2.902-3.312l4.239-20.112c-22.879-6.772-38.244-32.817-34.162-60.014l-18.963-3.997
		c-2.011-0.424-2.252-2.125-1.859-3.992c0.394-1.868,1.301-3.327,3.312-2.903l18.963,3.997c7.303-26.819,31.812-44.158,55.479-41.12
		l3.906-18.532c0.394-1.867,2.095-2.109,3.962-1.715s3.326,1.302,2.933,3.169l-3.906,18.532
		c22.88,6.773,38.418,32.704,34.163,60.015l17.094,3.603C343.019,141.673,343.261,143.374,342.866,145.242z M251.797,122.445
		l20.399,4.3l8.963-42.522C260.396,81.647,256.703,99.173,251.797,122.445z M261.538,177.312l9.205-43.672l-20.399-4.299
		C245.825,151.494,243.46,171.251,261.538,177.312z M288.054,85.677l-8.963,42.521l21.118,4.452
		C305.114,109.377,307.804,91.639,288.054,85.677z M298.756,139.545l-21.118-4.451l-9.205,43.672
		C286.845,180.396,293.692,161.434,298.756,139.545z"/>
</g>
</svg>
