<?xml version="1.0" encoding="utf-8"?>
<!-- Generator: Adobe Illustrator 16.0.4, SVG Export Plug-In . SVG Version: 6.00 Build 0)  -->
<!DOCTYPE svg PUBLIC "-//W3C//DTD SVG 1.1//EN" "http://www.w3.org/Graphics/SVG/1.1/DTD/svg11.dtd">
<svg version="1.1" id="Layer_1" xmlns="http://www.w3.org/2000/svg" xmlns:xlink="http://www.w3.org/1999/xlink" x="0px" y="0px"
	 width="550px" height="250px" viewBox="0 0 550 250" enable-background="new 0 0 550 250" xml:space="preserve">
<rect x="-317.32" y="-175.658" display="none" fill="#31363B" width="1300" height="617"/>
<g>
	<path fill="#62DB9B" d="M58.521,180.886H44.646l10.545-49.765c3.515-16.649,6.475-33.484,6.105-49.209h13.32l-0.74,18.13
		c9.435-11.655,24.05-20.165,37.925-20.165c15.725,0,20.72,14.43,17.205,31.265l-14.8,69.744H100.33l13.875-65.674
		c2.035-9.435,5.18-23.68-7.03-23.68c-13.135,0-32.56,13.32-39.959,48.099L58.521,180.886z"/>
	<path fill="#62DB9B" d="M221.133,76.547c2.22-11.1-3.885-19.794-15.169-19.794c-28.12,0-38.11,38.109-42.55,58.644
		c-4.07,19.425-9.99,56.424,16.65,56.424c13.875,0,24.419-10.359,27.379-23.494h13.875c-5.92,21.645-22.015,35.149-44.214,35.149
		c-36.629,0-33.299-40.145-27.379-68.449c6.29-29.229,20.904-69.929,58.459-69.929c18.5,0,29.6,12.95,26.825,31.449H221.133z"/>
	<path fill="#62DB9B" d="M390.775,182.921l-0.74-11.101c-9.805,7.4-14.984,11.101-26.455,11.101
		c-17.389,0-36.814-13.319-28.49-52.169c7.955-37.74,34.781-50.875,50.875-50.875c8.324,0,13.689,2.035,19.609,5.735l9.066-41.994
		h13.873l-21.645,101.933c-2.59,12.211-4.068,24.42-2.59,35.705L390.775,182.921z M402.615,99.672
		c-4.439-4.44-9.805-8.14-16.836-8.14c-14.799,0-31.264,12.395-36.998,39.775c-6.846,32.189,8.324,39.959,17.574,39.959
		c10.73,0,19.055-7.955,24.789-17.02L402.615,99.672z"/>
	<path fill="#62DB9B" d="M491.043,110.217c2.404-10.915-2.59-18.685-12.951-18.685c-8.693,0-17.76,4.07-26.453,7.4l-0.557-12.209
		c10.176-3.7,19.611-6.845,29.971-6.845c18.869,0,27.01,15.54,23.494,32.005l-9.064,42.919c-1.85,9.065-2.59,18.314-1.48,26.825
		l-13.32,1.665l-0.924-12.395c-8.324,7.954-16.65,12.024-27.01,12.024c-18.869,0-26.27-14.8-22.57-32.375
		c4.07-19.055,19.24-35.704,39.221-35.704c7.398,0,13.875,2.22,19.609,4.81L491.043,110.217z M486.602,131.307
		c-5.363-2.59-11.283-4.811-17.943-4.811c-14.061,0-22.199,12.21-24.791,24.79c-2.033,9.25,0.557,19.979,11.285,19.979
		c10.73,0,19.055-9.064,26.641-17.02v-0.37L486.602,131.307z"/>
</g>
<rect x="24.111" y="43.618" fill="none" width="748.569" height="324.959"/>
<text transform="matrix(1 0 0 1 24.1108 180.8857)" display="none" fill="#66ADDF" font-family="'LetterGothicStd-BoldSlanted'" font-size="185" letter-spacing="-15">nCoda</text>
<line display="none" fill="none" stroke="#000000" stroke-width="2" stroke-miterlimit="10" x1="307.263" y1="12.438" x2="257.766" y2="238.927"/>
<g display="none">
	<path display="inline" fill="#66ADDF" d="M342.39,160.123c-7.913-2.993-14.929-5.324-21.043-6.997
		c-1.333-0.327-2.286-0.382-2.867-0.172c-0.582,0.213-1.141,1.043-1.67,2.5c-2.766,4.088-6.442,8.306-11.029,12.648
		c-10.967,9.489-22.156,14.869-33.578,16.131c-0.541,0.044-1.291,0.04-2.244-0.02c-0.958-0.057-1.581-0.031-1.87,0.071
		c-0.291,0.108-0.622,0.377-0.993,0.815c-0.372,0.439-0.68,1.156-0.925,2.156c-0.486,2.699-0.965,6.465-1.438,11.29
		c-0.475,4.816-0.75,7.753-0.827,8.791c-0.081,0.331-0.091,0.728-0.025,1.187c0.062,0.451,0.066,0.809,0.005,1.059
		c-0.061,0.248-0.093,0.549-0.088,0.903c0,0.352-0.028,0.654-0.089,0.906c-0.061,0.249-0.175,0.526-0.338,0.84
		c-0.167,0.312-0.402,0.564-0.713,0.754c-0.311,0.189-0.654,0.325-1.026,0.41c-0.417,0.25-1.243,0.754-2.486,1.51
		c-1.242,0.753-2.094,1.161-2.549,1.229c-0.457,0.061-1.163-0.111-2.122-0.519c-0.957-0.414-1.981-1.279-3.067-2.603
		c0.32-2.039,0.733-4.807,1.235-8.298c0.499-3.495,0.974-6.687,1.415-9.574c0.443-2.894,0.863-5.524,1.269-7.892
		c0.407-1.665,0.389-2.86-0.05-3.584c-0.442-0.729-1.495-1.291-3.156-1.698c-10.747-4.388-18.385-11.375-22.921-20.95
		c-3.284-7.505-4.759-15.888-4.431-25.159c0.081-0.332,0.077-0.685-0.006-1.06c0.077-1.04-0.03-1.682-0.321-1.932
		c-0.295-0.246-1.105-0.534-2.436-0.858c-10.066-1.405-15.615-2.142-16.654-2.222c-0.663-0.161-1.912-0.111-3.739,0.144
		c-2.08-0.152-3.808-1.37-5.193-3.65c-1.213-1.529-1.246-3.918-0.1-7.168c0.905-2.246,2.582-3.338,5.033-3.268
		c10.02,0.864,17.794,1.884,23.328,3.06c2.162,0.527,3.327,0.462,3.49-0.206c0.245-0.291,0.494-0.936,0.738-1.936
		c4.958-13.074,14.775-23.282,29.45-30.631c4.019-2.015,9.058-3.871,15.118-5.563c2.2-0.343,3.487-0.735,3.858-1.173
		s0.68-1.157,0.924-2.155c1.633-5.243,3.978-14.107,7.03-26.59c0.407-1.662,1.232-2.874,2.475-3.628
		c1.283-0.918,2.588-1.219,3.923-0.893c2.161,0.529,3.54,1.751,4.132,3.656c0.756,1.95,0.812,4.259,0.161,6.918
		c-0.244,0.999-1.135,3.914-2.667,8.74c-1.537,4.83-2.627,8.577-3.277,11.237c-0.244,0.999-0.254,1.749-0.02,2.244
		c0.229,0.498,0.5,0.83,0.815,0.993c0.31,0.167,1.027,0.297,2.153,0.394c1.12,0.101,2.015,0.229,2.682,0.392
		c8.069,1.622,14.965,5.16,20.687,10.614c5.719,5.458,9.475,12.106,11.261,19.952c1.913,8.76,1.336,17.615-1.733,26.562
		c-0.407,1.665-0.131,3.055,0.833,4.171l15.354,4.285c2.828,0.691,4.601,2.096,5.32,4.211c1.214,2.239,0.919,4.899-0.894,7.982
		l-0.123,0.5c-0.249,0.295-0.436,0.513-0.557,0.657c-0.126,0.146-0.51,0.272-1.149,0.38
		C344.018,160.125,343.26,160.163,342.39,160.123z M243.046,150.91c2,9.133,6.123,14.992,12.37,17.576
		c1.248,0.661,2.079,0.864,2.497,0.611c0.412-0.251,0.844-1.291,1.292-3.124c1.536-7.733,2.817-13.684,3.835-17.847
		c0.488-1.997,0.355-3.616-0.4-4.859c-0.881-1.447-2.404-2.439-4.565-2.969c-4.789-1.345-9.283-2.443-13.481-3.297
		c-1.334-0.326-2.124-0.341-2.369-0.05c-0.25,0.295-0.391,1.228-0.421,2.807C241.826,143.998,242.24,147.717,243.046,150.91z
		 M253.624,110.901c-2.729,3.215-5.204,6.842-7.424,10.884c-0.907,1.543-0.361,2.557,1.636,3.045
		c5.324,1.303,9.256,2.179,11.794,2.62c3.16,0.772,5.258,0.491,6.291-0.843c0.662-0.54,1.482-2.813,2.459-6.806
		c0.605-3.201,1.724-8.131,3.352-14.791c0.813-3.327,0.971-5.054,0.472-5.176l-3.484,1.264
		C260.922,104.133,255.889,107.4,253.624,110.901z M287.971,99.193c-0.835-0.205-1.486,0.124-1.958,0.977
		c-0.474,0.854-0.955,2.279-1.443,4.276l-4.396,17.975c-0.407,1.666-0.273,3.636,0.404,5.919c0.124,0.208,0.311,0.52,0.565,0.933
		c0.25,0.416,0.472,0.777,0.662,1.087c0.188,0.311,0.55,0.623,1.095,0.929c0.54,0.312,1.226,0.565,2.061,0.77
		c5.155,0.557,10.75,1.835,16.788,3.84c2.496,0.61,3.97,0.707,4.427,0.289c0.326-0.623,0.753-2.37,1.281-5.243
		c0.671-7.065-0.232-12.755-2.705-17.064C301.34,105.463,295.746,100.565,287.971,99.193z M285.252,164.405
		c4.309-2.472,8.465-6.13,12.472-10.971l0.493-0.938c0.123-0.499,0.234-0.957,0.337-1.374c0.101-0.414,0.18-0.922,0.242-1.528
		c0.056-0.603-0.122-1.128-0.54-1.586c-0.417-0.454-1.044-0.784-1.875-0.987c-6.907-1.335-11.916-2.121-15.033-2.354
		c-3.536-0.688-5.472-0.718-5.797-0.095c-0.331,0.626-0.485,1.072-0.46,1.342c0.021,0.271-0.051,0.915-0.209,1.935
		c-0.162,1.018-0.364,2.027-0.608,3.025c-1.75,7.157-2.991,12.588-3.718,16.288c-0.489,1.998-0.59,3.121-0.295,3.368
		c0.291,0.248,1.101,0.182,2.43-0.2c0.204-0.123,0.393-0.169,0.561-0.128C276.986,169.354,280.985,167.422,285.252,164.405z"/>
</g>
<g>
	<path fill="#66ADDF" d="M342.866,145.242c-0.393,1.867-1.301,3.326-3.312,2.901l-17.094-3.603
		c-7.1,26.561-31.813,44.157-55.48,41.119l-4.239,20.112c-0.424,2.012-2.125,2.253-3.993,1.859
		c-1.867-0.395-3.327-1.302-2.902-3.312l4.239-20.112c-22.879-6.772-38.244-32.817-34.162-60.014l-18.963-3.997
		c-2.011-0.424-2.252-2.125-1.859-3.992c0.394-1.868,1.301-3.327,3.312-2.903l18.963,3.997c7.303-26.819,31.812-44.158,55.479-41.12
		l3.906-18.532c0.394-1.867,2.095-2.109,3.962-1.715s3.326,1.302,2.933,3.169l-3.906,18.532
		c22.88,6.773,38.418,32.704,34.163,60.015l17.094,3.603C343.019,141.673,343.261,143.374,342.866,145.242z M251.797,122.445
		l20.399,4.3l8.963-42.522C260.396,81.647,256.703,99.173,251.797,122.445z M261.538,177.312l9.205-43.672l-20.399-4.299
		C245.825,151.494,243.46,171.251,261.538,177.312z M288.054,85.677l-8.963,42.521l21.118,4.452
		C305.114,109.377,307.804,91.639,288.054,85.677z M298.756,139.545l-21.118-4.451l-9.205,43.672
		C286.845,180.396,293.692,161.434,298.756,139.545z"/>
</g>
</svg>
